<svg width="54" height="55" viewBox="0 0 54 55" fill="none" xmlns="http://www.w3.org/2000/svg">
<path d="M4.5 27.5C4.5 39.9268 14.5733 50 27 50C39.4268 50 49.5 39.9268 49.5 27.5C49.5 15.0733 39.4268 5 27 5C14.5733 5 4.5 15.0733 4.5 27.5Z" fill="#F6D14D"/>
<path d="M28.7424 11.7507H21.9301V19.0673H18V22.807C18 24.0718 18.9694 25.1167 20.2009 25.1167H21.9301V34.3008C21.9301 35.7032 22.1397 36.968 22.5327 38.1229C22.9258 39.2778 23.5022 40.2402 24.2096 41.0376C25.5983 42.5225 27.5109 43.2924 29.8952 43.2924C30.917 43.2924 31.9127 43.1824 32.8035 42.9624C33.7205 42.7424 34.559 42.44 35.345 42.055L33.4847 36.0056C33.4847 35.9781 33.4585 35.9781 33.4585 35.9781L32.5677 36.3081C32.2271 36.4456 31.8341 36.4731 31.3362 36.5006C28.9782 36.6381 28.0349 35.1807 27.9039 34.7408C27.7729 34.3008 27.7205 33.8059 27.7205 33.2834V25.1167H36V19.0948H28.7424V11.8906V11.7507Z" fill="#F9AC47"/>
</svg>
